<svg width="149" height="41" viewBox="0 0 149 41" fill="none" xmlns="http://www.w3.org/2000/svg">
<path fill-rule="evenodd" clip-rule="evenodd" d="M30.4273 8.47087L14.7104 12.1093C14.5352 12.1492 14.3509 12.1416 14.1803 12.0832L3.88882 8.60608C3.38024 8.43399 2.83017 8.70749 2.65808 9.21453L2.25245 10.413C2.08036 10.9216 2.35386 11.4716 2.8609 11.6437L12.4948 14.898C12.8896 15.0317 13.1555 15.402 13.1555 15.8169V23.401C13.1555 23.7744 12.9403 24.1155 12.6039 24.2768L1.96512 29.3642C1.48113 29.5947 1.27677 30.1755 1.50878 30.6579L2.05424 31.7995C2.28472 32.2835 2.86551 32.4879 3.34797 32.2559L14.188 27.0748C14.4169 26.9657 14.6781 26.9504 14.9178 27.0318L30.8375 32.4357C31.3445 32.6077 31.8961 32.3358 32.0682 31.8287L32.4754 30.6303C32.6475 30.1232 32.3755 29.5716 31.8685 29.3995L17.0228 24.3598C16.6295 24.2261 16.3637 23.8558 16.3637 23.441V15.7892C16.3637 15.3375 16.6756 14.9457 17.115 14.8443L31.1494 11.5961C31.6718 11.4747 31.9976 10.9538 31.8762 10.4314L31.5904 9.19917C31.469 8.67676 30.9481 8.35102 30.4257 8.4724L30.4273 8.47087Z" fill="#3971C8"/>
<path fill-rule="evenodd" clip-rule="evenodd" d="M33.2436 8.85049L23.1934 0.329057C22.7969 -0.00743665 22.2453 -0.0934807 21.766 0.106264L1.33972 8.58314C0.821917 8.79671 0.483887 9.30222 0.483887 9.86304V31.079C0.483887 31.6552 0.840355 32.1715 1.37967 32.3758L21.8028 40.0937C22.253 40.2642 22.7601 40.1889 23.1411 39.8939L33.1929 32.1315C33.5325 31.8688 33.7322 31.4632 33.7322 31.0345V9.9076C33.7322 9.50043 33.5524 9.11323 33.2421 8.85049H33.2436ZM3.69056 28.8634V12.0049C3.69056 11.4441 4.02859 10.9386 4.54639 10.7235L18.7375 4.83408C19.6502 4.45456 20.6551 5.12601 20.6551 6.11552V34.2273C20.6551 35.1969 19.6855 35.8668 18.779 35.5241L4.58634 30.1602C4.04703 29.9559 3.69056 29.4396 3.69056 28.8634ZM26.0973 33.562L29.9878 30.5582C30.3273 30.2954 30.5271 29.8898 30.5271 29.4611V11.3934C30.5271 10.9862 30.3473 10.599 30.0369 10.3363L26.1465 7.03742C25.2461 6.27378 23.8633 6.9145 23.8633 8.09453V32.465C23.8633 33.6158 25.1862 34.2657 26.0973 33.562Z" fill="#133E80"/>
<path d="M40.6802 25.8964V11.0569H58.7156V14.6646H44.2879V25.4862H58.7156V29.0939H43.8761C42.1107 29.0939 40.6802 27.6634 40.6802 25.8979V25.8964Z" fill="#133E80"/>
<path d="M63.1025 11.0569H66.7087V25.4862H77.5303V11.0569H81.138V29.0923H66.2985C64.533 29.0923 63.1025 27.6618 63.1025 25.8964V11.0569Z" fill="#133E80"/>
<path d="M85.5247 11.0569H100.364C102.13 11.0569 103.56 12.4874 103.56 14.2528V29.0923H85.5247V11.0569ZM99.9524 14.6646H89.1308V18.2723H99.9524V14.6646ZM99.9524 21.8785H89.1308V25.4862H99.9524V21.8785Z" fill="#133E80"/>
<path d="M125.982 29.0938H111.143C109.377 29.0938 107.947 27.6633 107.947 25.8979V11.0583H122.786C124.552 11.0583 125.982 12.4888 125.982 14.2543V29.0938ZM111.554 25.4861H122.376V14.6645H111.554V25.4861Z" fill="#133E80"/>
<path d="M137.133 20.0746L130.369 11.0569H134.877L139.385 17.0876L143.895 11.0569H148.403L141.639 20.0746L148.403 29.0923H143.895L139.385 23.0616L134.877 29.0923H130.369L137.133 20.0746Z" fill="#133E80"/>
</svg>
